<svg color-interpolation="auto" fill="black" fill-opacity="1" height="201.12" stroke="black" stroke-dasharray="none" stroke-dashoffset="0" stroke-linecap="square" stroke-linejoin="miter" stroke-miterlimit="10" stroke-opacity="1" stroke-width="1" style="fill: black;" width="201.14" xmlns="http://www.w3.org/2000/svg"><defs id="genericDefs"><clipPath id="d1_1" xmlns=""><path d="M0 0V201.12H201.14V0Z"/></clipPath><clipPath clip-path="url(#d1_1)" id="d1_2" xmlns=""><path d="M-485.19 289.48h792v-612h-792Z"/></clipPath><clipPath clip-path="url(#d1_2)" id="c1" xmlns=""><path d="M-485.19-322.52h792v612h-792Z"/></clipPath></defs><g><g color-interpolation="linearRGB" fill="rgb(178,172,162)" stroke="rgb(178,172,162)" stroke-linecap="butt" stroke-width="3"><path clip-path="url(#c1)" d="M96.82 143.34c-1.9-.03-4.04-.06-6.18-.09-.56-.01-1.12 0-1.66-.16-.13-.04-.28-.05-.41-.06-1.21-.04-2.4-.15-3.6-.29-1.29-.14-2.58-.31-3.86-.51-.73-.12-1.47-.2-2.2-.32-2.11-.33-4.19-.79-6.28-1.22-2.54-.54-5.05-1.24-7.53-1.99-2.53-.76-5.04-1.61-7.51-2.58-2.12-.84-4.23-1.69-6.29-2.64-.13-.06-.26-.11-.36-.2s-.22-.21-.23-.33c-.07-.79-.31-1.55-.31-2.34-.01-.84-.01-1.67-.21-2.49-.07-.31-.04-.65-.05-.97-.1-4.23-.1-8.46 0-12.69 0-.09 0-.19.01-.28.08-.78.17-1.57.23-2.35s0-1.58.23-2.35c.03-.09.03-.18.03-.28.06-1.44.36-2.85.52-4.28.23-1.99.63-3.94.99-5.9.38-2.05.91-4.07 1.41-6.1.54-2.16 1.18-4.3 1.88-6.41.87-2.6 1.81-5.17 2.86-7.7 1.16-2.79 2.37-5.55 3.78-8.23 1.49-2.84 3.05-5.63 4.75-8.36 1.6-2.57 3.36-5.02 5.12-7.47.79-1.09 1.65-2.13 2.49-3.18.69-.87 1.41-1.73 2.11-2.59.03-.04.06-.07.09-.11 1.06-1.17 2.09-2.37 3.19-3.51 1.58-1.64 3.2-3.24 4.82-4.85 1.45-1.44 3.02-2.76 4.57-4.08 1.91-1.63 3.87-3.19 5.89-4.67 1.5-1.1 3.04-2.13 4.57-3.19.25-.17.49-.23.77-.08.53.29 1.08.54 1.61.83 2.1 1.19 4.19 2.4 6.24 3.69 1.65 1.04 3.28 2.11 4.86 3.25 1.66 1.2 3.29 2.42 4.9 3.69 1.39 1.09 2.7 2.27 4.08 3.37.04.03.07.06.1.09 2.54 2.32 5.09 4.64 7.43 7.16 1.48 1.6 2.94 3.23 4.34 4.9 1.47 1.74 2.87 3.53 4.22 5.37 1.18 1.61 2.36 3.23 3.43 4.91 1.53 2.39 3.02 4.79 4.39 7.28 1.08 1.95 2.08 3.95 3.07 5.95 1.15 2.34 2.15 4.74 3.1 7.16.73 1.86 1.4 3.74 2.04 5.63.62 1.85 1.19 3.71 1.67 5.6.27 1.08.6 2.14.84 3.23.51 2.26 1.02 4.52 1.41 6.81.25 1.46.45 2.93.7 4.39.19 1.14.25 2.3.37 3.46.02.14-.01.28.03.42.28 1.14.22 2.31.27 3.47.01.19-.01.38.04.56.28 1.19.15 2.41.21 3.61.02.46-.15.81-.53 1.06-.93.61-1.84 1.26-2.79 1.84-2.02 1.23-4.05 2.47-6.12 3.61-1.87 1.03-3.8 1.96-5.72 2.9-2.76 1.35-5.58 2.52-8.45 3.61-1.96.74-3.93 1.42-5.93 2.04-2.66.82-5.33 1.59-8.06 2.18-1.45.32-2.89.67-4.35.92-1.42.24-2.81.6-4.25.71-1.04.28-2.12.2-3.16.46-.27.07-.55.06-.83.07-1.34.09-2.67.36-4.02.33-1.1.28-2.22.21-3.33.24-1.72.03-3.44.04-5.4.07" stroke="none"/><path clip-path="url(#c1)" d="M96.82 143.34c-1.9-.03-4.04-.06-6.18-.09-.56-.01-1.12 0-1.66-.16-.13-.04-.28-.05-.41-.06-1.21-.04-2.4-.15-3.6-.29-1.29-.14-2.58-.31-3.86-.51-.73-.12-1.47-.2-2.2-.32-2.11-.33-4.19-.79-6.28-1.22-2.54-.54-5.05-1.24-7.53-1.99-2.53-.76-5.04-1.61-7.51-2.58-2.12-.84-4.23-1.69-6.29-2.64-.13-.06-.26-.11-.36-.2s-.22-.21-.23-.33c-.07-.79-.31-1.55-.31-2.34-.01-.84-.01-1.67-.21-2.49-.07-.31-.04-.65-.05-.97-.1-4.23-.1-8.46 0-12.69 0-.09 0-.19.01-.28.08-.78.17-1.57.23-2.35s0-1.58.23-2.35c.03-.09.03-.18.03-.28.06-1.44.36-2.85.52-4.28.23-1.99.63-3.94.99-5.9.38-2.05.91-4.07 1.41-6.1.54-2.16 1.18-4.3 1.88-6.41.87-2.6 1.81-5.17 2.86-7.7 1.16-2.79 2.37-5.55 3.78-8.23 1.49-2.84 3.05-5.63 4.75-8.36 1.6-2.57 3.36-5.02 5.12-7.47.79-1.09 1.65-2.13 2.49-3.18.69-.87 1.41-1.73 2.11-2.59.03-.04.06-.07.09-.11 1.06-1.17 2.09-2.37 3.19-3.51 1.58-1.64 3.2-3.24 4.82-4.85 1.45-1.44 3.02-2.76 4.57-4.08 1.91-1.63 3.87-3.19 5.89-4.67 1.5-1.1 3.04-2.13 4.57-3.19.25-.17.49-.23.77-.08.53.29 1.08.54 1.61.83 2.1 1.19 4.19 2.4 6.24 3.69 1.65 1.04 3.28 2.11 4.86 3.25 1.66 1.2 3.29 2.42 4.9 3.69 1.39 1.09 2.7 2.27 4.08 3.37.04.03.07.06.1.09 2.54 2.32 5.09 4.64 7.43 7.16 1.48 1.6 2.94 3.23 4.34 4.9 1.47 1.74 2.87 3.53 4.22 5.37 1.18 1.61 2.36 3.23 3.43 4.91 1.53 2.39 3.02 4.79 4.39 7.28 1.08 1.95 2.08 3.95 3.07 5.95 1.15 2.34 2.15 4.74 3.1 7.16.73 1.86 1.4 3.74 2.04 5.63.62 1.85 1.19 3.71 1.67 5.6.27 1.08.6 2.14.84 3.23.51 2.26 1.02 4.52 1.41 6.81.25 1.46.45 2.93.7 4.39.19 1.14.25 2.3.37 3.46.02.14-.01.28.03.42.28 1.14.22 2.31.27 3.47.01.19-.01.38.04.56.28 1.19.15 2.41.21 3.61.02.46-.15.81-.53 1.06-.93.61-1.84 1.26-2.79 1.84-2.02 1.23-4.05 2.47-6.12 3.61-1.87 1.03-3.8 1.96-5.72 2.9-2.76 1.35-5.58 2.52-8.45 3.61-1.96.74-3.93 1.42-5.93 2.04-2.66.82-5.33 1.59-8.06 2.18-1.45.32-2.89.67-4.35.92-1.42.24-2.81.6-4.25.71-1.04.28-2.12.2-3.16.46-.27.07-.55.06-.83.07-1.34.09-2.67.36-4.02.33-1.1.28-2.22.21-3.33.24-1.72.03-3.44.04-5.4.07Z" fill="none" stroke="white" stroke-width="0.75"/><path clip-path="url(#c1)" d="M5.51 94.63c.14-1.56.25-2.86.38-4.15.1-.97.23-1.94.36-2.9 1.25-9.47 3.93-18.52 7.95-27.17C19.61 48.8 27.08 38.69 36.55 30.07c5.66-5.16 11.86-9.56 18.59-13.22.33-.18.65-.36.98-.53.3-.15.6-.2.95-.17 1.71.17 3.43.27 5.13.48 1.98.24 3.96.52 5.93.86 3.29.57 6.56 1.29 9.79 2.16 6.56 1.77 12.91 4.12 19.04 7.06.25.12.49.26.73.4.13.07.17.27.07.34-.33.25-.66.51-1 .75-6.06 4.19-11.67 8.91-16.8 14.21C69.15 53.56 60.94 66.39 55.39 80.91c-2.26 5.92-3.99 11.98-5.21 18.19-.51 2.6-.9 5.21-1.24 7.84-.84 6.47-.97 12.97-.73 19.48.07 1.72.27 3.43.4 5.14.01.13.01.33-.07.39-.16.12-.35.03-.51-.06s-.33-.16-.5-.25c-2.53-1.27-5.02-2.64-7.44-4.11-6.71-4.06-12.92-8.76-18.64-14.12-5.62-5.27-10.62-11.06-15.04-17.36-.21-.3-.42-.61-.63-.92-.17-.24-.26-.49-.25-.52" fill="rgb(198,144,1)" stroke="none" stroke-width="0.75"/><path clip-path="url(#c1)" d="M5.51 94.63c.14-1.56.25-2.86.38-4.15.1-.97.23-1.94.36-2.9 1.25-9.47 3.93-18.52 7.95-27.17C19.61 48.8 27.08 38.69 36.55 30.07c5.66-5.16 11.86-9.56 18.59-13.22.33-.18.65-.36.98-.53.3-.15.6-.2.95-.17 1.71.17 3.43.27 5.13.48 1.98.24 3.96.52 5.93.86 3.29.57 6.56 1.29 9.79 2.16 6.56 1.77 12.91 4.12 19.04 7.06.25.12.49.26.73.4.13.07.17.27.07.34-.33.25-.66.51-1 .75-6.06 4.19-11.67 8.91-16.8 14.21C69.15 53.56 60.94 66.39 55.39 80.91c-2.26 5.92-3.99 11.98-5.21 18.19-.51 2.6-.9 5.21-1.24 7.84-.84 6.47-.97 12.97-.73 19.48.07 1.72.27 3.43.4 5.14.01.13.01.33-.07.39-.16.12-.35.03-.51-.06s-.33-.16-.5-.25c-2.53-1.27-5.02-2.64-7.44-4.11-6.71-4.06-12.92-8.76-18.64-14.12-5.62-5.27-10.62-11.06-15.04-17.36-.21-.3-.42-.61-.63-.92-.17-.24-.26-.49-.25-.52Z" fill="none" stroke="white" stroke-width="0.75"/><path clip-path="url(#c1)" d="M100.12 195.73c-2.39.08-5.18-.11-7.95-.35-5.01-.44-9.95-1.28-14.83-2.5-.09-.02-.18-.05-.27-.07-.46-.11-.85-.32-1.15-.71-.51-.66-1.07-1.29-1.59-1.94-9.18-11.45-15.84-24.22-19.96-38.31-1.25-4.28-2.25-8.63-2.92-13.04-.15-1.01-.3-2.02-.45-3.03-.02-.14.13-.24.27-.19.22.08.43.16.65.25 1.07.45 2.14.91 3.21 1.35 6.3 2.55 12.78 4.5 19.44 5.85 2.78.56 5.57 1.01 8.38 1.38 6.06.81 12.13.97 18.23.81 2.42-.06 4.82-.28 7.23-.5 2.45-.22 4.89-.56 7.32-.96 3.21-.53 6.39-1.2 9.54-2.01 11.88-3.08 22.97-7.95 33.25-14.66.31-.2.63-.39.95-.57.08-.05.29.1.29.2.01.23.03.46.03.69.04 2.93-.12 5.86-.38 8.77-1.57 17.42-6.92 33.59-16.11 48.47-1.04 1.68-.54 1.22-2.32 2.06-6.62 3.13-13.52 5.43-20.68 6.96-2.45.52-4.93.93-7.42 1.25-4.11.53-8.23.82-12.78.79" fill="rgb(23,43,72)" stroke="none" stroke-width="0.75"/><path clip-path="url(#c1)" d="M100.12 195.73c-2.39.08-5.18-.11-7.95-.35-5.01-.44-9.95-1.28-14.83-2.5-.09-.02-.18-.05-.27-.07-.46-.11-.85-.32-1.15-.71-.51-.66-1.07-1.29-1.59-1.94-9.18-11.45-15.84-24.22-19.96-38.31-1.25-4.28-2.25-8.63-2.92-13.04-.15-1.01-.3-2.02-.45-3.03-.02-.14.13-.24.27-.19.22.08.43.16.65.25 1.07.45 2.14.91 3.21 1.35 6.3 2.55 12.78 4.5 19.44 5.85 2.78.56 5.57 1.01 8.38 1.38 6.06.81 12.13.97 18.23.81 2.42-.06 4.82-.28 7.23-.5 2.45-.22 4.89-.56 7.32-.96 3.21-.53 6.39-1.2 9.54-2.01 11.88-3.08 22.97-7.95 33.25-14.66.31-.2.63-.39.95-.57.08-.05.29.1.29.2.01.23.03.46.03.69.04 2.93-.12 5.86-.38 8.77-1.57 17.42-6.92 33.59-16.11 48.47-1.04 1.68-.54 1.22-2.32 2.06-6.62 3.13-13.52 5.43-20.68 6.96-2.45.52-4.93.93-7.42 1.25-4.11.53-8.23.82-12.78.79Z" fill="none" stroke="white" stroke-width="0.75"/><path clip-path="url(#c1)" d="M194.42 84.87c.02.33-.04.65-.2.94-.24.45-.46.92-.72 1.36-1.58 2.68-3.19 5.35-4.95 7.91-1.61 2.34-3.28 4.62-5.07 6.82-1.7 2.1-3.46 4.13-5.28 6.12-1.32 1.44-2.65 2.87-4.07 4.2-1.53 1.43-3.04 2.87-4.63 4.22-1.2 1.03-2.4 2.05-3.65 3.02s-2.51 1.91-3.77 2.86c-.17.13-.36.02-.38-.2-.16-1.43-.25-2.87-.29-4.31-.02-.69-.16-1.38-.22-2.07-.06-.65 0-1.3-.2-1.94-.04-.13-.06-.27-.06-.41-.08-1.35-.35-2.67-.52-4-.24-1.84-.59-3.66-.95-5.48-.42-2.14-.92-4.26-1.49-6.37-.79-2.91-1.66-5.8-2.68-8.65-.91-2.54-1.88-5.05-2.97-7.51-.83-1.87-1.73-3.71-2.63-5.54-2.1-4.26-4.53-8.32-7.18-12.26-1.58-2.35-3.27-4.63-5.01-6.86-1.11-1.43-2.3-2.8-3.48-4.17-1.3-1.52-2.73-2.92-4.09-4.38-.85-.92-1.76-1.79-2.66-2.65-.57-.54-1.14-1.1-1.7-1.65-1.27-1.23-2.64-2.34-3.98-3.49-2.15-1.85-4.42-3.55-6.7-5.22-1.31-.96-2.66-1.87-4.02-2.76-1.55-1.02-3.12-2.01-4.73-2.95-1.09-.63-2.18-1.24-3.27-1.86-.2-.11-.4-.23-.58-.37-.05-.04-.07-.2-.04-.23.25-.21.5-.42.78-.58 1.45-.83 2.88-1.7 4.34-2.51 1.59-.88 3.2-1.7 4.82-2.51 2.49-1.25 5.06-2.35 7.65-3.37 2.07-.82 4.16-1.59 6.29-2.28 3-.97 6.04-1.82 9.12-2.54.54-.13 1.09-.22 1.62-.39.39-.13.72-.05 1.07.1 2.69 1.16 5.33 2.42 7.9 3.83 4.16 2.27 8.16 4.81 11.94 7.68 1.48 1.12 2.92 2.3 4.35 3.48 2.83 2.35 5.46 4.91 7.99 7.57 1.02 1.08 1.95 2.24 2.94 3.35.93 1.04 1.77 2.15 2.65 3.23 1.43 1.78 2.74 3.63 4.01 5.52 1.53 2.27 2.94 4.63 4.28 7.02.75 1.34 1.45 2.7 2.13 4.08 1.2 2.41 2.24 4.9 3.24 7.4.84 2.12 1.56 4.27 2.23 6.45.9 2.93 1.67 5.89 2.26 8.9.16.82.33 1.63.48 2.46.06.32.07.65.1.97" stroke="none" stroke-width="0.75"/><path clip-path="url(#c1)" d="M194.42 84.87c.02.33-.04.65-.2.94-.24.45-.46.92-.72 1.36-1.58 2.68-3.19 5.35-4.95 7.91-1.61 2.34-3.28 4.62-5.07 6.82-1.7 2.1-3.46 4.13-5.28 6.12-1.32 1.44-2.65 2.87-4.07 4.2-1.53 1.43-3.04 2.87-4.63 4.22-1.2 1.03-2.4 2.05-3.65 3.02s-2.51 1.91-3.77 2.86c-.17.13-.36.02-.38-.2-.16-1.43-.25-2.87-.29-4.31-.02-.69-.16-1.38-.22-2.07-.06-.65 0-1.3-.2-1.94-.04-.13-.06-.27-.06-.41-.08-1.35-.35-2.67-.52-4-.24-1.84-.59-3.66-.95-5.48-.42-2.14-.92-4.26-1.49-6.37-.79-2.91-1.66-5.8-2.68-8.65-.91-2.54-1.88-5.05-2.97-7.51-.83-1.87-1.73-3.71-2.63-5.54-2.1-4.26-4.53-8.32-7.18-12.26-1.58-2.35-3.27-4.63-5.01-6.86-1.11-1.43-2.3-2.8-3.48-4.17-1.3-1.52-2.73-2.92-4.09-4.38-.85-.92-1.76-1.79-2.66-2.65-.57-.54-1.14-1.1-1.7-1.65-1.27-1.23-2.64-2.34-3.98-3.49-2.15-1.85-4.42-3.55-6.7-5.22-1.31-.96-2.66-1.87-4.02-2.76-1.55-1.02-3.12-2.01-4.73-2.95-1.09-.63-2.18-1.24-3.27-1.86-.2-.11-.4-.23-.58-.37-.05-.04-.07-.2-.04-.23.25-.21.5-.42.78-.58 1.45-.83 2.88-1.7 4.34-2.51 1.59-.88 3.2-1.7 4.82-2.51 2.49-1.25 5.06-2.35 7.65-3.37 2.07-.82 4.16-1.59 6.29-2.28 3-.97 6.04-1.82 9.12-2.54.54-.13 1.09-.22 1.62-.39.39-.13.72-.05 1.07.1 2.69 1.16 5.33 2.42 7.9 3.83 4.16 2.27 8.16 4.81 11.94 7.68 1.48 1.12 2.92 2.3 4.35 3.48 2.83 2.35 5.46 4.91 7.99 7.57 1.02 1.08 1.95 2.24 2.94 3.35.93 1.04 1.77 2.15 2.65 3.23 1.43 1.78 2.74 3.63 4.01 5.52 1.53 2.27 2.94 4.63 4.28 7.02.75 1.34 1.45 2.7 2.13 4.08 1.2 2.41 2.24 4.9 3.24 7.4.84 2.12 1.56 4.27 2.23 6.45.9 2.93 1.67 5.89 2.26 8.9.16.82.33 1.63.48 2.46.06.32.07.65.1.97Z" fill="none" stroke="white" stroke-width="0.75"/><path clip-path="url(#c1)" d="M5.38 102.06c.01-.71.03-2.06.05-3.41 0-.12.05-.2.16-.18.08.01.18.04.22.09.23.29.46.58.68.88 4.1 5.55 8.66 10.69 13.7 15.41 8.17 7.65 17.26 13.95 27.3 18.9.29.14.58.3.88.42.45.18.58.51.64.97 1.47 11.56 4.65 22.64 9.56 33.21 3.62 7.79 8.09 15.06 13.38 21.82.29.36.55.74.82 1.12.02.03.03.1.02.12s-.08.07-.12.06c-.18-.03-.36-.05-.54-.11-8.8-2.75-17.01-6.7-24.66-11.85-6.08-4.09-11.63-8.82-16.61-14.19-10.16-10.96-17.38-23.6-21.64-37.92-1.17-3.92-2.06-7.91-2.68-11.96-.37-2.39-.65-4.79-.86-7.19-.16-1.85-.21-3.71-.29-6.21" fill="rgb(198,145,1)" stroke="none" stroke-width="0.75"/><path clip-path="url(#c1)" d="M5.38 102.06c.01-.71.03-2.06.05-3.41 0-.12.05-.2.16-.18.08.01.18.04.22.09.23.29.46.58.68.88 4.1 5.55 8.66 10.69 13.7 15.41 8.17 7.65 17.26 13.95 27.3 18.9.29.14.58.3.88.42.45.18.58.51.64.97 1.47 11.56 4.65 22.64 9.56 33.21 3.62 7.79 8.09 15.06 13.38 21.82.29.36.55.74.82 1.12.02.03.03.1.02.12s-.08.07-.12.06c-.18-.03-.36-.05-.54-.11-8.8-2.75-17.01-6.7-24.66-11.85-6.08-4.09-11.63-8.82-16.61-14.19-10.16-10.96-17.38-23.6-21.64-37.92-1.17-3.92-2.06-7.91-2.68-11.96-.37-2.39-.65-4.79-.86-7.19-.16-1.85-.21-3.71-.29-6.21Z" fill="none" stroke="white" stroke-width="0.75"/><path clip-path="url(#c1)" d="M146.29 183.41c.05-.07.09-.14.11-.22.16-.05.23-.16.21-.33 3.92-6.72 7.07-13.8 9.51-21.18 1.49-4.5 2.68-9.09 3.57-13.74.52-2.69.93-5.4 1.25-8.12.54-4.62.81-9.26.78-13.91 0-.23-.02-.47.02-.7.02-.12.09-.27.18-.35.24-.21.51-.4.78-.59 6.06-4.35 11.63-9.26 16.72-14.71 5.57-5.97 10.43-12.47 14.61-19.49.24-.4.48-.79.72-1.18.02-.03.1-.07.12-.06.07.05.16.1.19.18.05.13.08.27.09.4.13 1.53.25 3.06.4 4.58.28 2.97.25 5.94.22 8.92-.02 2.42-.23 4.83-.46 7.23-.21 2.18-.51 4.34-.87 6.49-.65 3.9-1.55 7.74-2.71 11.52-5.27 17.17-14.64 31.7-28.03 43.66-4.87 4.35-10.16 8.12-15.82 11.37-.32.19-.64.37-.96.56-.25-.01-.55.08-.6-.31" fill="rgb(23,43,72)" stroke="none" stroke-width="0.75"/><path clip-path="url(#c1)" d="M146.29 183.41c.05-.07.09-.14.11-.22.16-.05.23-.16.21-.33 3.92-6.72 7.07-13.8 9.51-21.18 1.49-4.5 2.68-9.09 3.57-13.74.52-2.69.93-5.4 1.25-8.12.54-4.62.81-9.26.78-13.91 0-.23-.02-.47.02-.7.02-.12.09-.27.18-.35.24-.21.51-.4.78-.59 6.06-4.35 11.63-9.26 16.72-14.71 5.57-5.97 10.43-12.47 14.61-19.49.24-.4.48-.79.72-1.18.02-.03.1-.07.12-.06.07.05.16.1.19.18.05.13.08.27.09.4.13 1.53.25 3.06.4 4.58.28 2.97.25 5.94.22 8.92-.02 2.42-.23 4.83-.46 7.23-.21 2.18-.51 4.34-.87 6.49-.65 3.9-1.55 7.74-2.71 11.52-5.27 17.17-14.64 31.7-28.03 43.66-4.87 4.35-10.16 8.12-15.82 11.37-.32.19-.64.37-.96.56-.25-.01-.55.08-.6-.31Z" fill="none" stroke="white" stroke-width="0.75"/><path clip-path="url(#c1)" d="M133.85 11.45c-.03.03-.07.08-.11.09-.8.23-1.6.48-2.4.69-2.74.72-5.43 1.6-8.11 2.52-2.77.95-5.47 2.05-8.16 3.22-2.77 1.21-5.46 2.57-8.13 3.98-2.09 1.11-4.12 2.33-6.13 3.59-.16.1-.31.2-.47.31-.21.14-.42.17-.65.07-.76-.35-1.53-.68-2.28-1.05-3.38-1.66-6.87-3.06-10.41-4.33-1.09-.39-2.18-.79-3.29-1.14-2.48-.78-4.97-1.5-7.49-2.13-1.71-.42-3.43-.81-5.16-1.16-1.32-.27-2.65-.42-3.97-.68-1.09-.21-2.2-.34-3.3-.5s-2.21-.24-3.31-.37c-.03 0-.07-.04-.09-.07-.06-.1-.04-.18.05-.25.07-.05.14-.12.23-.16.5-.24 1-.49 1.51-.72 3.49-1.53 7.06-2.84 10.7-3.96 2.7-.83 5.44-1.56 8.22-2.07 1.14-.21 2.27-.47 3.41-.68.87-.16 1.74-.27 2.61-.4.64-.1 1.28-.2 1.93-.26.6-.06 1.2-.06 1.79-.21.35-.09.74-.06 1.11-.08.65-.03 1.3-.03 1.94-.19.31-.08.65-.06.97-.07 3.81-.09 7.62-.09 11.43.01.46.01.92.09 1.38.14.14.01.27.07.41.06 1.31-.04 2.59.24 3.88.34.83.07 1.66.17 2.48.32 1.83.32 3.66.61 5.47 1 1.91.41 3.79.87 5.68 1.36 2.61.68 5.15 1.55 7.7 2.42.17.06.33.17.48.26.03.02.04.07.06.11" fill="rgb(179,173,163)" stroke="none" stroke-width="0.75"/><path clip-path="url(#c1)" d="M133.85 11.45c-.03.03-.07.08-.11.09-.8.23-1.6.48-2.4.69-2.74.72-5.43 1.6-8.11 2.52-2.77.95-5.47 2.05-8.16 3.22-2.77 1.21-5.46 2.57-8.13 3.98-2.09 1.11-4.12 2.33-6.13 3.59-.16.1-.31.2-.47.31-.21.14-.42.17-.65.07-.76-.35-1.53-.68-2.28-1.05-3.38-1.66-6.87-3.06-10.41-4.33-1.09-.39-2.18-.79-3.29-1.14-2.48-.78-4.97-1.5-7.49-2.13-1.71-.42-3.43-.81-5.16-1.16-1.32-.27-2.65-.42-3.97-.68-1.09-.21-2.2-.34-3.3-.5s-2.21-.24-3.31-.37c-.03 0-.07-.04-.09-.07-.06-.1-.04-.18.05-.25.07-.05.14-.12.23-.16.5-.24 1-.49 1.51-.72 3.49-1.53 7.06-2.84 10.7-3.96 2.7-.83 5.44-1.56 8.22-2.07 1.14-.21 2.27-.47 3.41-.68.87-.16 1.74-.27 2.61-.4.64-.1 1.28-.2 1.93-.26.6-.06 1.2-.06 1.79-.21.35-.09.74-.06 1.11-.08.65-.03 1.3-.03 1.94-.19.31-.08.65-.06.97-.07 3.81-.09 7.62-.09 11.43.01.46.01.92.09 1.38.14.14.01.27.07.41.06 1.31-.04 2.59.24 3.88.34.83.07 1.66.17 2.48.32 1.83.32 3.66.61 5.47 1 1.91.41 3.79.87 5.68 1.36 2.61.68 5.15 1.55 7.7 2.42.17.06.33.17.48.26.03.02.04.07.06.11Z" fill="none" stroke="white" stroke-width="0.75"/><path clip-path="url(#c1)" d="M146.29 183.41c.05.4.35.3.6.31-.2.33-.53.44-.88.49-.04 0-.14-.12-.13-.18.03-.27.15-.5.41-.62" stroke="none" stroke-width="0.75"/><path clip-path="url(#c1)" d="M146.29 183.41c.05.4.35.3.6.31-.2.33-.53.44-.88.49-.04 0-.14-.12-.13-.18.03-.27.15-.5.41-.62Z" fill="none" stroke="white" stroke-width="0.75"/><path clip-path="url(#c1)" d="M146.6 182.86c.03.17-.05.27-.21.33-.03-.17.05-.27.21-.33" stroke="none" stroke-width="0.75"/><path clip-path="url(#c1)" d="M146.6 182.86c.03.17-.05.27-.21.33-.03-.17.05-.27.21-.33Z" fill="none" stroke="white" stroke-width="0.75"/></g></g></svg>